<?xml version="1.0" encoding="UTF-8"?>
<svg xmlns="http://www.w3.org/2000/svg" xmlns:xlink="http://www.w3.org/1999/xlink" version="1.1" x="0" y="0" width="200" height="28" viewBox="0, 0, 200, 28">
  <g id="Layer_1">
    <g>
      <path d="M6.688,19.196 L2.845,19.196 Q2.902,20.676 3.514,21.659 Q4.126,22.641 5.08,23.239 Q6.033,23.837 7.258,24.093 Q8.482,24.349 9.763,24.349 Q11.016,24.349 12.226,24.107 Q13.436,23.865 14.375,23.267 Q15.315,22.669 15.898,21.687 Q16.482,20.705 16.482,19.253 Q16.482,18.228 16.083,17.53 Q15.685,16.833 15.03,16.363 Q14.375,15.893 13.535,15.609 Q12.695,15.324 11.813,15.125 Q10.959,14.925 10.133,14.754 Q9.307,14.584 8.667,14.37 Q8.026,14.157 7.628,13.815 Q7.229,13.473 7.229,12.932 Q7.229,12.477 7.457,12.206 Q7.685,11.936 8.012,11.794 Q8.339,11.651 8.738,11.608 Q9.137,11.566 9.478,11.566 Q10.56,11.566 11.357,11.979 Q12.155,12.391 12.24,13.559 L16.083,13.559 Q15.97,12.192 15.386,11.295 Q14.802,10.399 13.92,9.858 Q13.037,9.317 11.913,9.089 Q10.788,8.861 9.592,8.861 Q8.396,8.861 7.258,9.075 Q6.119,9.288 5.208,9.815 Q4.297,10.342 3.741,11.253 Q3.186,12.164 3.186,13.587 Q3.186,14.555 3.585,15.224 Q3.983,15.893 4.638,16.335 Q5.293,16.776 6.133,17.046 Q6.973,17.317 7.855,17.516 Q10.019,17.972 11.229,18.427 Q12.439,18.883 12.439,19.794 Q12.439,20.335 12.183,20.691 Q11.927,21.046 11.542,21.26 Q11.158,21.473 10.688,21.573 Q10.219,21.673 9.791,21.673 Q9.194,21.673 8.638,21.53 Q8.083,21.388 7.656,21.089 Q7.229,20.79 6.959,20.32 Q6.688,19.851 6.688,19.196 z" fill="#000000"></path>
      <path d="M32.653,23.979 L32.653,9.26 L28.61,9.26 L28.61,16.975 Q28.61,19.224 27.87,20.207 Q27.13,21.189 25.479,21.189 Q24.027,21.189 23.457,20.292 Q22.888,19.395 22.888,17.573 L22.888,9.26 L18.845,9.26 L18.845,18.313 Q18.845,19.68 19.087,20.804 Q19.329,21.929 19.927,22.712 Q20.525,23.495 21.564,23.922 Q22.603,24.349 24.226,24.349 Q25.507,24.349 26.731,23.78 Q27.956,23.21 28.724,21.929 L28.81,21.929 L28.81,23.979 z" fill="#000000"></path>
      <path d="M35.842,9.26 L35.842,23.979 L39.885,23.979 L39.885,15.438 Q39.885,14.356 40.198,13.687 Q40.511,13.018 40.952,12.662 Q41.394,12.306 41.863,12.178 Q42.333,12.05 42.618,12.05 Q43.586,12.05 44.084,12.377 Q44.582,12.705 44.796,13.246 Q45.009,13.786 45.038,14.427 Q45.066,15.068 45.066,15.722 L45.066,23.979 L49.109,23.979 L49.109,15.779 Q49.109,15.096 49.209,14.427 Q49.308,13.758 49.607,13.231 Q49.906,12.705 50.433,12.377 Q50.96,12.05 51.814,12.05 Q52.668,12.05 53.166,12.334 Q53.664,12.619 53.921,13.103 Q54.177,13.587 54.234,14.242 Q54.291,14.897 54.291,15.637 L54.291,23.979 L58.334,23.979 L58.334,14.128 Q58.334,12.705 57.935,11.694 Q57.536,10.683 56.825,10.057 Q56.113,9.43 55.116,9.146 Q54.12,8.861 52.953,8.861 Q51.415,8.861 50.291,9.601 Q49.166,10.342 48.511,11.31 Q47.913,9.943 46.76,9.402 Q45.607,8.861 44.212,8.861 Q42.76,8.861 41.636,9.487 Q40.511,10.114 39.714,11.253 L39.657,11.253 L39.657,9.26 z" fill="#000000"></path>
      <path d="M61.522,9.26 L61.522,23.979 L65.565,23.979 L65.565,16.263 Q65.565,14.014 66.305,13.032 Q67.045,12.05 68.697,12.05 Q70.149,12.05 70.718,12.947 Q71.288,13.843 71.288,15.666 L71.288,23.979 L75.33,23.979 L75.33,14.925 Q75.33,13.559 75.088,12.434 Q74.846,11.31 74.248,10.527 Q73.651,9.744 72.611,9.302 Q71.572,8.861 69.949,8.861 Q68.668,8.861 67.444,9.445 Q66.22,10.028 65.451,11.31 L65.366,11.31 L65.366,9.26 z" fill="#000000"></path>
      <path d="M78.519,9.26 L78.519,23.979 L82.562,23.979 L82.562,9.26 z" fill="#000000"></path>
      <path d="M85.864,9.26 L85.864,23.979 L89.907,23.979 L89.907,15.438 Q89.907,14.356 90.22,13.687 Q90.534,13.018 90.975,12.662 Q91.416,12.306 91.886,12.178 Q92.356,12.05 92.64,12.05 Q93.608,12.05 94.107,12.377 Q94.605,12.705 94.818,13.246 Q95.032,13.786 95.06,14.427 Q95.089,15.068 95.089,15.722 L95.089,23.979 L99.132,23.979 L99.132,15.779 Q99.132,15.096 99.231,14.427 Q99.331,13.758 99.63,13.231 Q99.929,12.705 100.456,12.377 Q100.982,12.05 101.836,12.05 Q102.69,12.05 103.189,12.334 Q103.687,12.619 103.943,13.103 Q104.199,13.587 104.256,14.242 Q104.313,14.897 104.313,15.637 L104.313,23.979 L108.356,23.979 L108.356,14.128 Q108.356,12.705 107.957,11.694 Q107.559,10.683 106.847,10.057 Q106.135,9.43 105.139,9.146 Q104.142,8.861 102.975,8.861 Q101.438,8.861 100.313,9.601 Q99.189,10.342 98.534,11.31 Q97.936,9.943 96.783,9.402 Q95.63,8.861 94.235,8.861 Q92.783,8.861 91.658,9.487 Q90.534,10.114 89.736,11.253 L89.679,11.253 L89.679,9.26 z" fill="#000000"></path>
      <path d="M111.374,13.786 Q111.459,12.363 112.086,11.423 Q112.712,10.484 113.68,9.915 Q114.648,9.345 115.858,9.103 Q117.068,8.861 118.292,8.861 Q119.403,8.861 120.541,9.018 Q121.68,9.174 122.62,9.63 Q123.559,10.085 124.157,10.897 Q124.755,11.708 124.755,13.046 L124.755,20.705 Q124.755,21.701 124.869,22.612 Q124.983,23.523 125.268,23.979 L121.168,23.979 Q121.054,23.637 120.983,23.281 Q120.912,22.925 120.883,22.555 Q119.915,23.552 118.605,23.95 Q117.296,24.349 115.929,24.349 Q114.876,24.349 113.965,24.093 Q113.054,23.837 112.37,23.296 Q111.687,22.755 111.303,21.929 Q110.918,21.103 110.918,19.965 Q110.918,18.712 111.36,17.9 Q111.801,17.089 112.499,16.605 Q113.196,16.121 114.093,15.879 Q114.99,15.637 115.901,15.495 Q116.812,15.352 117.694,15.267 Q118.577,15.182 119.26,15.011 Q119.944,14.84 120.342,14.512 Q120.741,14.185 120.712,13.559 Q120.712,12.904 120.499,12.52 Q120.285,12.135 119.929,11.922 Q119.573,11.708 119.104,11.637 Q118.634,11.566 118.093,11.566 Q116.897,11.566 116.214,12.078 Q115.531,12.591 115.417,13.786 z M120.712,16.776 Q120.456,17.004 120.072,17.132 Q119.687,17.26 119.246,17.345 Q118.805,17.431 118.321,17.488 Q117.837,17.545 117.353,17.63 Q116.897,17.715 116.456,17.858 Q116.015,18 115.687,18.242 Q115.36,18.484 115.16,18.854 Q114.961,19.224 114.961,19.794 Q114.961,20.335 115.16,20.705 Q115.36,21.075 115.701,21.288 Q116.043,21.502 116.499,21.587 Q116.954,21.673 117.438,21.673 Q118.634,21.673 119.289,21.274 Q119.944,20.876 120.257,20.32 Q120.57,19.765 120.641,19.196 Q120.712,18.626 120.712,18.285 z" fill="#000000"></path>
      <path d="M128.456,19.11 Q128.513,20.135 128.912,20.918 Q129.31,21.701 129.951,22.256 Q130.591,22.812 131.446,23.096 Q132.3,23.381 133.296,23.381 Q134.008,23.381 134.819,23.253 Q135.631,23.125 136.328,22.783 Q137.026,22.441 137.481,21.829 Q137.937,21.217 137.937,20.278 Q137.937,19.054 137.197,18.427 Q136.456,17.801 135.332,17.459 Q134.207,17.118 132.912,16.904 Q131.616,16.69 130.492,16.263 Q129.367,15.836 128.627,15.053 Q127.887,14.27 127.887,12.762 Q127.887,11.68 128.371,10.954 Q128.855,10.228 129.609,9.801 Q130.364,9.374 131.303,9.189 Q132.243,9.003 133.182,9.003 Q134.321,9.003 135.318,9.26 Q136.314,9.516 137.04,10.085 Q137.766,10.655 138.179,11.537 Q138.592,12.42 138.592,13.673 L137.51,13.673 Q137.51,12.676 137.182,11.964 Q136.855,11.253 136.271,10.811 Q135.688,10.37 134.89,10.157 Q134.093,9.943 133.182,9.943 Q132.442,9.943 131.688,10.085 Q130.933,10.228 130.335,10.569 Q129.737,10.911 129.353,11.452 Q128.969,11.993 128.969,12.762 Q128.969,13.644 129.396,14.185 Q129.823,14.726 130.52,15.053 Q131.218,15.381 132.086,15.58 Q132.954,15.779 133.837,15.979 Q134.919,16.178 135.873,16.448 Q136.826,16.719 137.524,17.189 Q138.222,17.658 138.62,18.399 Q139.019,19.139 139.019,20.278 Q139.019,21.473 138.478,22.242 Q137.937,23.011 137.111,23.481 Q136.286,23.95 135.275,24.135 Q134.264,24.321 133.296,24.321 Q132.043,24.321 130.976,23.993 Q129.908,23.666 129.111,22.997 Q128.314,22.328 127.858,21.36 Q127.403,20.392 127.374,19.11 z" fill="#000000"></path>
      <path d="M147.019,10.285 L143.83,10.285 L143.83,20.506 Q143.83,21.388 144.03,21.901 Q144.229,22.413 144.642,22.683 Q145.054,22.954 145.638,23.011 Q146.222,23.068 146.99,23.039 L146.99,23.979 Q146.165,24.036 145.382,23.965 Q144.599,23.893 144.001,23.538 Q143.403,23.182 143.047,22.47 Q142.691,21.758 142.748,20.506 L142.748,10.285 L140.044,10.285 L140.044,9.345 L142.748,9.345 L142.748,4.79 L143.83,4.79 L143.83,9.345 L147.019,9.345 z" fill="#000000"></path>
      <path d="M160.599,23.979 L159.517,23.979 L159.517,20.847 L159.46,20.847 Q159.176,21.673 158.649,22.313 Q158.122,22.954 157.425,23.41 Q156.727,23.865 155.902,24.093 Q155.076,24.321 154.222,24.321 Q152.941,24.321 152.044,24.007 Q151.147,23.694 150.578,23.182 Q150.008,22.669 149.681,22.029 Q149.353,21.388 149.211,20.733 Q149.069,20.078 149.04,19.466 Q149.012,18.854 149.012,18.399 L149.012,9.345 L150.094,9.345 L150.094,18.598 Q150.094,19.167 150.179,19.979 Q150.265,20.79 150.677,21.545 Q151.09,22.299 151.916,22.84 Q152.741,23.381 154.25,23.381 Q155.475,23.381 156.457,22.926 Q157.439,22.47 158.122,21.659 Q158.806,20.847 159.162,19.723 Q159.517,18.598 159.517,17.26 L159.517,9.345 L160.599,9.345 z" fill="#000000"></path>
      <path d="M175.091,20.847 L175.034,20.847 Q174.123,22.584 172.756,23.452 Q171.39,24.321 169.425,24.321 Q167.774,24.321 166.578,23.694 Q165.382,23.068 164.614,22.014 Q163.845,20.961 163.475,19.58 Q163.105,18.199 163.105,16.69 Q163.105,15.068 163.503,13.658 Q163.902,12.249 164.713,11.224 Q165.525,10.199 166.749,9.601 Q167.973,9.003 169.624,9.003 Q170.507,9.003 171.361,9.245 Q172.215,9.487 172.941,9.943 Q173.667,10.398 174.208,11.082 Q174.749,11.765 175.034,12.619 L175.091,12.619 L175.091,3.651 L176.173,3.651 L176.173,23.979 L175.091,23.979 z M169.653,23.381 Q171.048,23.381 172.059,22.812 Q173.069,22.242 173.738,21.303 Q174.407,20.363 174.735,19.153 Q175.062,17.943 175.062,16.69 Q175.062,15.409 174.735,14.199 Q174.407,12.989 173.753,12.036 Q173.098,11.082 172.059,10.512 Q171.019,9.943 169.624,9.943 Q168.172,9.943 167.147,10.498 Q166.123,11.053 165.453,11.993 Q164.784,12.932 164.485,14.157 Q164.187,15.381 164.187,16.69 Q164.187,17.972 164.514,19.182 Q164.841,20.392 165.51,21.331 Q166.179,22.271 167.204,22.826 Q168.229,23.381 169.653,23.381 z" fill="#000000"></path>
      <path d="M179.874,23.979 L179.874,9.345 L180.956,9.345 L180.956,23.979 z" fill="#000000"></path>
      <path d="M183.717,16.662 Q183.717,15.096 184.159,13.715 Q184.6,12.334 185.454,11.281 Q186.308,10.228 187.561,9.616 Q188.813,9.003 190.436,9.003 Q192.059,9.003 193.312,9.616 Q194.565,10.228 195.419,11.281 Q196.273,12.334 196.714,13.715 Q197.155,15.096 197.155,16.662 Q197.155,18.228 196.714,19.623 Q196.273,21.018 195.419,22.057 Q194.565,23.096 193.312,23.708 Q192.059,24.321 190.436,24.321 Q188.813,24.321 187.561,23.708 Q186.308,23.096 185.454,22.057 Q184.6,21.018 184.159,19.623 Q183.717,18.228 183.717,16.662 z M184.799,16.662 Q184.799,17.972 185.169,19.182 Q185.539,20.392 186.251,21.331 Q186.963,22.271 188.016,22.826 Q189.07,23.381 190.436,23.381 Q191.803,23.381 192.856,22.826 Q193.91,22.271 194.621,21.331 Q195.333,20.392 195.703,19.182 Q196.073,17.972 196.073,16.662 Q196.073,15.352 195.703,14.142 Q195.333,12.932 194.621,11.993 Q193.91,11.053 192.856,10.498 Q191.803,9.943 190.436,9.943 Q189.07,9.943 188.016,10.498 Q186.963,11.053 186.251,11.993 Q185.539,12.932 185.169,14.142 Q184.799,15.352 184.799,16.662 z" fill="#000000"></path>
    </g>
  </g>
</svg>
